<?xml version="1.0" encoding="iso-8859-1"?>
<!-- Generator: Adobe Illustrator 19.0.0, SVG Export Plug-In . SVG Version: 6.00 Build 0)  -->
<svg version="1.1" id="Layer_1" xmlns="http://www.w3.org/2000/svg" xmlns:xlink="http://www.w3.org/1999/xlink" x="0px" y="0px"
	 viewBox="0 0 512 512" style="enable-background:new 0 0 512 512;" xml:space="preserve">
<g>
	<g>
		<path d="M256,0C114.84,0,0,114.84,0,256s114.84,256,256,256s256-114.84,256-256S397.16,0,256,0z M256,491.52
			C126.135,491.52,20.48,385.865,20.48,256S126.135,20.48,256,20.48S491.52,126.135,491.52,256S385.865,491.52,256,491.52z"/>
	</g>
</g>
<g>
	<g>
		<path d="M256,163.84c-50.815,0-92.16,41.345-92.16,92.16s41.345,92.16,92.16,92.16s92.16-41.345,92.16-92.16
			S306.815,163.84,256,163.84z M256,327.68c-39.525,0-71.68-32.155-71.68-71.68c0-39.525,32.155-71.68,71.68-71.68
			c39.525,0,71.68,32.155,71.68,71.68C327.68,295.525,295.525,327.68,256,327.68z"/>
	</g>
</g>
<g>
	<g>
		<path d="M199.14,103.48c-5.075-2.535-11.215-0.48-13.74,4.58l-10.24,20.48c-2.53,5.06-0.48,11.21,4.58,13.74
			c1.47,0.735,3.035,1.08,4.57,1.08c3.76,0,7.375-2.07,9.17-5.66l10.24-20.48C206.25,112.16,204.2,106.01,199.14,103.48z"/>
	</g>
</g>
<g>
	<g>
		<path d="M367.56,97.82l-10.24-20.48c-2.53-5.05-8.665-7.115-13.74-4.58c-5.06,2.53-7.11,8.68-4.58,13.74l10.24,20.48
			c1.795,3.59,5.41,5.66,9.17,5.66c1.535,0,3.1-0.345,4.57-1.08C368.04,109.03,370.09,102.88,367.56,97.82z"/>
	</g>
</g>
<g>
	<g>
		<path d="M424.42,205.88c-5.07-2.54-11.21-0.47-13.74,4.58l-10.24,20.48c-2.53,5.06-0.48,11.21,4.58,13.74
			c1.47,0.735,3.035,1.08,4.57,1.08c3.76,0,7.375-2.07,9.17-5.66L429,219.62C431.53,214.56,429.48,208.41,424.42,205.88z"/>
	</g>
</g>
<g>
	<g>
		<path d="M386.12,320.44c-4-4-10.48-4-14.48,0l-20.48,20.48c-4,4-4,10.48,0,14.48c2,2,4.62,3,7.24,3c2.62,0,5.24-1,7.24-3
			l20.48-20.48C390.12,330.92,390.12,324.44,386.12,320.44z"/>
	</g>
</g>
<g>
	<g>
		<path d="M235.52,409.6c-5.655,0-10.24,4.585-10.24,10.24v20.48c0,5.655,4.585,10.24,10.24,10.24c5.655,0,10.24-4.585,10.24-10.24
			v-20.48C245.76,414.185,241.175,409.6,235.52,409.6z"/>
	</g>
</g>
<g>
	<g>
		<path d="M128.56,329.4l-30.72-20.48c-4.71-3.145-11.06-1.865-14.2,2.84c-3.135,4.705-1.865,11.065,2.84,14.2l30.72,20.48
			c1.745,1.165,3.72,1.72,5.67,1.72c3.31,0,6.555-1.6,8.53-4.56C134.535,338.895,133.265,332.535,128.56,329.4z"/>
	</g>
</g>
<g>
	<g>
		<path d="M92.16,194.56H71.68c-5.655,0-10.24,4.585-10.24,10.24s4.585,10.24,10.24,10.24h20.48c5.655,0,10.24-4.585,10.24-10.24
			S97.815,194.56,92.16,194.56z"/>
	</g>
</g>
<g>
</g>
<g>
</g>
<g>
</g>
<g>
</g>
<g>
</g>
<g>
</g>
<g>
</g>
<g>
</g>
<g>
</g>
<g>
</g>
<g>
</g>
<g>
</g>
<g>
</g>
<g>
</g>
<g>
</g>
</svg>
